<?xml version="1.0" standalone="no"?>
<!DOCTYPE svg PUBLIC "-//W3C//DTD SVG 20010904//EN"
 "http://www.w3.org/TR/2001/REC-SVG-20010904/DTD/svg10.dtd">
<svg version="1.0" xmlns="http://www.w3.org/2000/svg"
 width="245.000000pt" height="245.000000pt" viewBox="0 0 245.000000 245.000000"
 preserveAspectRatio="xMidYMid meet">
<metadata>
Created by potrace 1.14, written by Peter Selinger 2001-2017
</metadata>
<g transform="translate(0.000000,245.000000) scale(0.100000,-0.100000)"
fill="#000000" stroke="none">
<path d="M1130 2158 l0 -293 100 0 100 0 0 293 0 292 -100 0 -100 0 0 -292z"/>
<path d="M425 1621 c-104 -26 -202 -50 -216 -54 l-26 -7 22 -95 c13 -53 25
-98 27 -101 3 -2 81 14 173 37 93 22 176 41 184 41 20 2 161 -89 161 -104 0
-6 -5 -28 -12 -49 l-11 -39 -126 0 -126 0 -162 -108 -161 -108 51 -82 c29 -45
57 -82 62 -82 6 0 71 41 145 90 l135 90 92 0 91 0 10 -28 10 -29 -167 -95
-166 -95 -3 -237 -2 -237 102 3 103 3 3 176 2 175 109 62 c60 34 113 62 118
62 5 0 22 -14 38 -30 100 -104 290 -161 440 -130 80 16 190 70 244 120 24 22
46 40 50 40 3 0 56 -28 116 -63 l110 -63 3 -177 2 -177 100 0 100 0 -2 237 -3
237 -157 91 c-86 49 -160 93 -163 96 -3 4 -3 18 1 33 6 26 7 26 100 26 l95 0
134 -90 c74 -49 138 -90 142 -90 9 0 116 160 111 165 -2 1 -75 50 -163 109
l-160 106 -123 0 -122 0 -11 28 c-24 61 -19 71 61 122 l75 49 179 -45 c98 -25
181 -42 184 -39 13 12 50 190 41 195 -5 4 -108 30 -229 59 l-220 53 -109 -76
c-60 -42 -112 -76 -116 -76 -4 0 -24 13 -44 29 -99 78 -224 116 -351 108 -103
-7 -178 -33 -267 -94 l-65 -44 -110 72 c-60 39 -117 73 -126 74 -9 2 -102 -18
-207 -44z m663 -381 c1 0 11 -15 22 -32 30 -49 26 -84 -14 -124 -43 -43 -90
-46 -134 -9 -85 71 -13 204 93 174 16 -5 31 -9 33 -9z m410 0 c1 0 11 -15 22
-32 30 -49 26 -84 -14 -124 -43 -43 -90 -46 -134 -9 -85 71 -13 204 93 174 16
-5 31 -9 33 -9z"/>
</g>
</svg>
